<svg width="90" height="47" viewBox="0 0 90 47" fill="none" xmlns="http://www.w3.org/2000/svg">
<path d="M14.64 46C13.4133 46 12.2267 45.4933 11.08 44.48C9.96 43.4667 9.01333 42 8.24 40.08C7.49333 38.16 7.05333 35.84 6.92 33.12C6.09333 33.2 5.33333 33.24 4.64 33.24C3.09333 33.24 1.96 33.04 1.24 32.64C0.546667 32.24 0.2 31.72 0.2 31.08C0.2 30.44 0.506667 29.7333 1.12 28.96C1.73333 28.1867 2.58667 27.4133 3.68 26.64C4.77333 25.84 6.05333 25.12 7.52 24.48C8.02667 21.76 8.84 18.8267 9.96 15.68C11.1067 12.5067 12.64 9.14667 14.56 5.6C14.7467 5.25333 15.0267 5.08 15.4 5.08C15.64 5.08 15.8533 5.16 16.04 5.32C16.2267 5.48 16.32 5.69333 16.32 5.96C16.32 6.09333 16.28 6.26666 16.2 6.48C14.4933 9.92 13.0667 13.08 11.92 15.96C10.8 18.8133 9.92 21.4267 9.28 23.8C10.48 23.3467 11.76 22.9733 13.12 22.68C14.48 22.3867 15.8667 22.2133 17.28 22.16C17.6533 22.16 17.84 22.2133 17.84 22.32C17.84 22.4267 17.7067 22.5333 17.44 22.64C17.2 22.72 16.7867 22.7733 16.2 22.8C14.8933 22.88 13.64 23.0667 12.44 23.36C11.2667 23.6267 10.16 23.96 9.12 24.36C8.72 25.9067 8.41333 27.3467 8.2 28.68C7.98667 29.9867 7.85333 31.2 7.8 32.32C10.5467 31.7333 13.04 30.88 15.28 29.76C17.5467 28.6133 19.5467 27.2933 21.28 25.8C23.0133 24.3067 24.4667 22.76 25.64 21.16C26.3867 20.1467 26.92 19.2533 27.24 18.48C27.5867 17.68 27.76 16.9867 27.76 16.4C27.76 15.5467 27.4933 14.88 26.96 14.4C26.4267 13.8933 25.72 13.5333 24.84 13.32C23.96 13.08 23 12.96 21.96 12.96C20.8667 12.96 19.76 13.0667 18.64 13.28C17.52 13.4667 16.5067 13.7333 15.6 14.08C15.3867 14.1333 15.24 14.16 15.16 14.16C14.8133 14.16 14.64 14.04 14.64 13.8C14.64 13.56 14.7867 13.3733 15.08 13.24C18.36 11.3733 20.6933 9.68 22.08 8.16C23.4667 6.64 24.16 5.36 24.16 4.32C24.16 3.41333 23.7333 2.72 22.88 2.24C22.0533 1.73333 20.96 1.48 19.6 1.48C18.5333 1.48 17.3333 1.65333 16 2C14.6667 2.34667 13.2933 2.90667 11.88 3.68C10.7067 4.32 9.64 5.08 8.68 5.96C7.74667 6.81333 6.94667 7.70667 6.28 8.64C5.64 9.54667 5.16 10.4133 4.84 11.24C4.52 12.04 4.4 12.72 4.48 13.28C4.48 13.3333 4.48 13.4 4.48 13.48C4.50667 13.5333 4.52 13.5867 4.52 13.64C4.52 14.3067 4.32 14.64 3.92 14.64C3.73333 14.64 3.53333 14.5067 3.32 14.24C3.13333 13.9733 3.04 13.5733 3.04 13.04C3.04 12.24 3.28 11.3867 3.76 10.48C4.26667 9.57333 4.93333 8.66666 5.76 7.76C6.61333 6.82666 7.56 5.96 8.6 5.16C9.64 4.33333 10.72 3.62666 11.84 3.04C13.28 2.26666 14.6933 1.69333 16.08 1.32C17.4933 0.946665 18.7867 0.759998 19.96 0.759998C21.5867 0.759998 22.9067 1.08 23.92 1.72C24.9333 2.36 25.44 3.25333 25.44 4.4C25.44 5.46667 24.92 6.70667 23.88 8.12C22.84 9.53333 21.0933 11.0933 18.64 12.8C19.4667 12.6667 20.24 12.5733 20.96 12.52C21.68 12.44 22.3467 12.4 22.96 12.4C25.2533 12.4 26.9067 12.7867 27.92 13.56C28.96 14.3067 29.48 15.28 29.48 16.48C29.48 17.36 29.2267 18.32 28.72 19.36C28.24 20.3733 27.56 21.4267 26.68 22.52C25.4 24.0933 23.7867 25.6133 21.84 27.08C19.92 28.5467 17.76 29.8133 15.36 30.88C12.9867 31.9467 10.4533 32.6667 7.76 33.04C7.70667 35.4133 7.92 37.3733 8.4 38.92C8.90667 40.4667 9.54667 41.6667 10.32 42.52C11.0933 43.4 11.8667 44.0133 12.64 44.36C13.4133 44.7333 14.0533 44.92 14.56 44.92C14.9333 44.92 15.1867 44.8533 15.32 44.72C15.4267 44.5867 15.5867 44.52 15.8 44.52C16.0133 44.52 16.2133 44.6 16.4 44.76C16.5867 44.92 16.68 45.0933 16.68 45.28C16.68 45.44 16.5867 45.56 16.4 45.64C15.8133 45.88 15.2267 46 14.64 46ZM4.8 32.72C5.09333 32.72 5.41333 32.6933 5.76 32.64C6.10667 32.6133 6.48 32.5733 6.88 32.52C6.85333 31.4 6.88 30.2267 6.96 29C7.04 27.7733 7.18667 26.4933 7.4 25.16C5.69333 26.04 4.34667 27.0267 3.36 28.12C2.37333 29.1867 1.88 30.1333 1.88 30.96C1.88 31.4667 2.12 31.88 2.6 32.2C3.08 32.5467 3.81333 32.72 4.8 32.72ZM36.0506 37.36C35.704 37.36 35.3706 37.2267 35.0506 36.96C34.7573 36.6933 34.504 36.4267 34.2906 36.16C33.4373 35.1733 32.7173 33.8667 32.1306 32.24C31.5706 30.6133 31.144 28.8267 30.8506 26.88C30.5573 24.9067 30.4106 22.9067 30.4106 20.88C30.4106 18.9867 30.5306 17.1467 30.7706 15.36C31.0373 13.5733 31.4373 11.9467 31.9706 10.48C32.504 9.01333 33.1706 7.84 33.9706 6.96C35.0106 5.78667 36.0106 5.2 36.9706 5.2C37.5573 5.2 38.024 5.46667 38.3706 6C38.744 6.50667 38.9306 7.32 38.9306 8.44C38.9306 9.50667 38.7173 10.8667 38.2906 12.52C37.8906 14.1467 37.1973 16.0933 36.2106 18.36C35.864 19.1067 35.4906 19.8533 35.0906 20.6C34.7173 21.3467 34.3173 22.1333 33.8906 22.96C33.7306 23.28 33.5973 23.44 33.4906 23.44C33.4373 23.44 33.4106 23.3867 33.4106 23.28C33.4106 23.0667 33.504 22.7867 33.6906 22.44C36.1173 17.88 37.3306 13.3467 37.3306 8.84C37.3306 7.05333 36.9573 6.16 36.2106 6.16C35.6773 6.16 35.0506 6.68 34.3306 7.72C33.344 9.18667 32.664 10.9333 32.2906 12.96C31.9173 14.96 31.7306 16.9867 31.7306 19.04C31.7306 20.5867 31.7973 22.0933 31.9306 23.56C32.064 25 32.224 26.3067 32.4106 27.48C32.4906 27.9867 32.6106 28.6667 32.7706 29.52C32.9306 30.3733 33.144 31.2667 33.4106 32.2C33.6773 33.16 33.9706 34.0267 34.2906 34.8C34.6373 35.6 35.0106 36.1733 35.4106 36.52C35.5173 36.6 35.624 36.68 35.7306 36.76C35.864 36.8667 36.0106 36.9333 36.1706 36.96C36.4106 36.96 36.5306 37.0267 36.5306 37.16C36.5306 37.2933 36.3706 37.36 36.0506 37.36ZM40.6094 32.4C39.7294 32.4 39.0094 32.1333 38.4494 31.6C37.916 31.0667 37.516 30.3867 37.2494 29.56C36.9827 28.7067 36.8494 27.8133 36.8494 26.88C36.8494 26.32 36.9027 25.7867 37.0094 25.28C37.116 24.7733 37.2227 24.36 37.3294 24.04C37.3027 23.8533 37.276 23.6667 37.2494 23.48C37.2494 23.2667 37.2494 23.0533 37.2494 22.84C37.2494 22.0667 37.3294 21.2267 37.4894 20.32C37.6494 19.4133 37.9027 18.5467 38.2494 17.72C38.6227 16.8933 39.076 16.2267 39.6094 15.72C40.1694 15.1867 40.8494 14.92 41.6494 14.92C42.3427 14.92 43.0227 15.2133 43.6894 15.8C44.356 16.36 44.9427 17.1867 45.4494 18.28C45.7427 18.8933 45.9427 19.56 46.0494 20.28C46.1827 20.9733 46.2494 21.68 46.2494 22.4C46.2494 23.3867 46.1427 24.3733 45.9294 25.36C45.7427 26.32 45.4627 27.2267 45.0894 28.08C44.8227 28.6933 44.4627 29.3467 44.0094 30.04C43.5827 30.7067 43.0894 31.2667 42.5294 31.72C41.9694 32.1733 41.3294 32.4 40.6094 32.4ZM40.8094 31.52C41.716 31.52 42.556 30.8933 43.3294 29.64C43.8894 28.76 44.2894 27.76 44.5294 26.64C44.7694 25.4933 44.8894 24.3467 44.8894 23.2C44.8894 22.3467 44.836 21.52 44.7294 20.72C44.6227 19.92 44.4627 19.1467 44.2494 18.4C44.0627 17.7333 43.7427 17.1467 43.2894 16.64C42.8627 16.1067 42.2494 15.88 41.4494 15.96C40.8094 16.0133 40.2494 16.3333 39.7694 16.92C39.2894 17.5067 38.916 18.1733 38.6494 18.92C38.4094 19.64 38.2894 20.2667 38.2894 20.8C38.2894 21.0933 38.3294 21.32 38.4094 21.48C38.4894 21.2667 38.6894 20.92 39.0094 20.44C39.3294 19.9333 39.6894 19.48 40.0894 19.08C40.4894 18.6533 40.8627 18.44 41.2094 18.44C41.5027 18.44 41.6494 18.56 41.6494 18.8C41.3027 18.8267 40.956 19.04 40.6094 19.44C40.2894 19.8133 39.9827 20.2667 39.6894 20.8C39.4227 21.3333 39.196 21.8667 39.0094 22.4C38.8494 22.9067 38.7294 23.3067 38.6494 23.6C38.6227 23.7067 38.5827 23.84 38.5294 24C38.476 24.16 38.4494 24.32 38.4494 24.48C38.4494 24.6667 38.556 24.9733 38.7694 25.4C38.9827 25.8 39.3294 26.1733 39.8094 26.52C40.2894 26.8667 40.9427 27.04 41.7694 27.04C42.0094 27.04 42.2627 27.0133 42.5294 26.96C42.796 26.9067 43.0494 26.8533 43.2894 26.8L43.5694 26.72C43.6227 26.72 43.6494 26.7467 43.6494 26.8C43.6494 26.88 43.556 26.9867 43.3694 27.12C43.2094 27.2267 43.0627 27.3067 42.9294 27.36C42.556 27.5467 42.1427 27.64 41.6894 27.64C41.0227 27.64 40.3827 27.44 39.7694 27.04C39.1827 26.6133 38.6627 26.1333 38.2094 25.6C38.1827 25.8133 38.1694 26.0267 38.1694 26.24C38.1694 26.4267 38.1694 26.6133 38.1694 26.8C38.1694 28.3467 38.436 29.52 38.9694 30.32C39.5027 31.12 40.116 31.52 40.8094 31.52ZM47.7878 46.88C46.7211 46.88 45.8145 46.56 45.0678 45.92C44.2945 45.3067 43.9078 44.48 43.9078 43.44C43.9078 42.4 44.4011 41.1867 45.3878 39.8C46.3745 38.4133 48.0411 36.9733 50.3878 35.48C50.9211 35.1067 51.4811 34.7733 52.0678 34.48C52.6811 34.1867 53.3078 33.88 53.9478 33.56C54.1078 33.48 54.2278 33.44 54.3078 33.44C54.4145 33.44 54.4678 33.48 54.4678 33.56C54.4678 33.7467 54.2811 33.9467 53.9078 34.16C52.6278 34.8 51.5345 35.4667 50.6278 36.16C49.7478 36.88 48.9345 37.72 48.1878 38.68C47.7878 39.1867 47.3611 39.7733 46.9078 40.44C46.4811 41.1333 46.1211 41.8133 45.8278 42.48C45.5078 43.1467 45.3478 43.7467 45.3478 44.28C45.3478 45.4 45.8811 45.96 46.9478 45.96C47.4011 45.96 47.9345 45.8267 48.5478 45.56C49.1611 45.32 49.8278 44.92 50.5478 44.36C52.3611 42.9467 53.6411 41.3733 54.3878 39.64C55.1345 37.9333 55.5078 35.9333 55.5078 33.64C55.5078 31.9333 55.3478 30.04 55.0278 27.96C54.7345 25.8267 54.5745 23.7867 54.5478 21.84C54.4145 22.6667 54.1878 23.6667 53.8678 24.84C53.5745 25.9867 53.2145 27.08 52.7878 28.12C52.3611 29.16 51.8811 30.0533 51.3478 30.8C50.8411 31.5467 50.1878 31.92 49.3878 31.92C48.8278 31.92 48.3478 31.64 47.9478 31.08C47.5745 30.52 47.3878 29.6667 47.3878 28.52C47.3878 27.6667 47.5345 26.6533 47.8278 25.48C48.1211 24.3067 48.5211 23.1733 49.0278 22.08C49.5345 20.96 50.0945 20.04 50.7078 19.32C51.3478 18.5733 51.9878 18.2 52.6278 18.2C53.0811 18.2 53.4011 18.3867 53.5878 18.76C53.8011 19.1067 53.9078 19.4667 53.9078 19.84C53.9078 20.1333 53.8545 20.3867 53.7478 20.6C53.6411 20.8133 53.4811 20.92 53.2678 20.92C53.0545 20.8933 52.8945 20.8 52.7878 20.64C52.7078 20.4533 52.6278 20.28 52.5478 20.12C52.4678 19.9333 52.3211 19.84 52.1078 19.84C51.6811 19.84 51.2678 20.12 50.8678 20.68C50.4945 21.2133 50.1478 21.92 49.8278 22.8C49.5345 23.6533 49.2945 24.56 49.1078 25.52C48.9478 26.48 48.8678 27.36 48.8678 28.16C48.8678 28.9067 48.9478 29.52 49.1078 30C49.2945 30.48 49.5745 30.7333 49.9478 30.76C50.4011 30.7867 50.8411 30.4933 51.2678 29.88C51.6945 29.2667 52.0811 28.48 52.4278 27.52C52.8011 26.56 53.1211 25.5467 53.3878 24.48C53.6811 23.3867 53.9211 22.3733 54.1078 21.44C54.3211 20.48 54.4678 19.7333 54.5478 19.2C54.7611 17.7867 54.9611 16.8933 55.1478 16.52C55.3345 16.12 55.5345 15.92 55.7478 15.92C55.9345 15.92 56.0945 16.0933 56.2278 16.44C56.3878 16.7867 56.4678 17.1067 56.4678 17.4C56.4678 17.6133 56.4545 17.76 56.4278 17.84C56.1078 19.6 55.9478 21.4 55.9478 23.24C55.9478 24.0133 55.9745 24.7867 56.0278 25.56C56.0811 26.3067 56.1478 27.0533 56.2278 27.8C56.3878 29.3467 56.4678 30.7867 56.4678 32.12C56.4678 34.84 56.1878 37.1333 55.6278 39C55.0945 40.8933 54.3878 42.4133 53.5078 43.56C52.6278 44.7333 51.6811 45.5733 50.6678 46.08C49.6811 46.6133 48.7211 46.88 47.7878 46.88ZM63.1541 17.64C62.9141 17.64 62.7407 17.52 62.6341 17.28C62.5541 17.0133 62.5141 16.8267 62.5141 16.72C62.5141 16.2933 62.6341 15.8933 62.8741 15.52C63.1407 15.12 63.4341 14.9067 63.7541 14.88H63.8741C64.1941 14.88 64.4074 14.96 64.5141 15.12C64.6474 15.2533 64.7141 15.4267 64.7141 15.64C64.7141 16.04 64.5407 16.48 64.1941 16.96C63.8474 17.4133 63.5007 17.64 63.1541 17.64ZM61.1141 31.96C60.2074 31.96 59.5941 31.6133 59.2741 30.92C58.9541 30.2267 58.7941 29.4267 58.7941 28.52C58.7941 27.6133 58.8874 26.6667 59.0741 25.68C59.2874 24.6667 59.5141 23.7467 59.7541 22.92C60.0207 22.0933 60.2207 21.5067 60.3541 21.16C60.6474 20.5467 60.9407 20.0267 61.2341 19.6C61.5274 19.1467 61.8474 18.92 62.1941 18.92C62.4341 18.92 62.6074 19.0133 62.7141 19.2C62.8474 19.36 62.9141 19.5733 62.9141 19.84C62.9141 20.3733 62.7674 20.92 62.4741 21.48C62.1807 22.0133 61.9141 22.52 61.6741 23C61.1407 24.0933 60.7141 25.0667 60.3941 25.92C60.1007 26.7733 59.9541 27.84 59.9541 29.12C59.9541 29.9467 60.0341 30.5467 60.1941 30.92C60.3807 31.2933 60.6341 31.48 60.9541 31.48C61.3807 31.48 61.8741 31.24 62.4341 30.76C62.9941 30.2533 63.5674 29.5867 64.1541 28.76C64.7407 27.9333 65.2607 27.04 65.7141 26.08C66.0074 25.4667 66.2341 25.16 66.3941 25.16C66.5007 25.16 66.5541 25.2667 66.5541 25.48C66.5541 25.7733 66.4341 26.2 66.1941 26.76C65.9807 27.2933 65.7141 27.84 65.3941 28.4C65.1007 28.96 64.8207 29.4 64.5541 29.72C64.1007 30.3067 63.5807 30.8267 62.9941 31.28C62.4074 31.7333 61.7807 31.96 61.1141 31.96ZM58.4766 42.16C57.8899 42.16 57.4232 42.0133 57.0766 41.72C56.7032 41.4533 56.5166 41.1333 56.5166 40.76C56.5166 40.5467 56.5832 40.3467 56.7166 40.16C56.8232 40 56.9699 39.92 57.1566 39.92C57.4499 39.92 57.6632 40.0267 57.7966 40.24C57.9299 40.48 58.0632 40.72 58.1966 40.96C58.3566 41.28 58.6099 41.44 58.9566 41.44C59.4632 41.44 60.0899 41.1467 60.8366 40.56C61.9299 39.7333 62.8232 38.6667 63.5166 37.36C64.1832 36.08 64.7699 34.7067 65.2766 33.24C65.9166 31.4267 66.4232 29.3467 66.7966 27C67.1966 24.6533 67.5832 22.2933 67.9566 19.92C67.6366 19.9467 67.3166 19.9867 66.9966 20.04C66.6766 20.0667 66.3699 20.0933 66.0766 20.12C65.9966 20.12 65.8766 20.04 65.7166 19.88C65.5566 19.72 65.4232 19.56 65.3166 19.4C65.2366 19.2133 65.2366 19.12 65.3166 19.12C66.3032 19.0133 67.2366 18.9333 68.1166 18.88C68.3032 17.7067 68.5032 16.56 68.7166 15.44C68.9299 14.2933 69.1699 13.2133 69.4366 12.2C69.7032 11.1867 70.0499 10.1467 70.4766 9.08C70.9299 8.01333 71.4499 7.12 72.0366 6.4C72.6499 5.65333 73.3299 5.28 74.0766 5.28C74.6899 5.28 75.2766 5.48 75.8366 5.88C76.3966 6.28 76.6766 6.88 76.6766 7.68C76.6766 8.10667 76.5566 8.61333 76.3166 9.2C76.0766 9.78667 75.6632 10.4267 75.0766 11.12C74.9966 11.2 74.9432 11.24 74.9166 11.24C74.8099 11.24 74.7566 11.1333 74.7566 10.92C74.7566 10.7067 74.8099 10.5333 74.9166 10.4C75.5299 9.6 75.8366 8.86667 75.8366 8.2C75.8366 7.42666 75.5032 7.04 74.8366 7.04C74.2499 7.04 73.5966 7.48 72.8766 8.36C72.1566 9.24 71.5166 10.6667 70.9566 12.64C70.7432 13.3867 70.5432 14.24 70.3566 15.2C70.1699 16.16 69.9299 17.2267 69.6366 18.4L69.5166 18.88C70.4232 18.88 71.2099 18.9333 71.8766 19.04C72.5699 19.12 73.0899 19.2133 73.4366 19.32C73.5166 19.3467 73.5566 19.4 73.5566 19.48C73.5566 19.6133 73.4766 19.68 73.3166 19.68C72.7566 19.68 72.1299 19.6933 71.4366 19.72C70.7699 19.7467 70.0766 19.7867 69.3566 19.84C68.9299 22.24 68.4766 24.6667 67.9966 27.12C67.5432 29.5733 66.9699 31.76 66.2766 33.68C65.6366 35.4667 64.8899 37.0533 64.0366 38.44C63.1566 39.8267 62.1566 40.8267 61.0366 41.44C60.1299 41.92 59.2766 42.16 58.4766 42.16ZM73.1031 46.72C72.0631 46.72 71.2231 46.44 70.5831 45.88C69.9431 45.3467 69.6231 44.6267 69.6231 43.72C69.6231 42.92 69.8498 42.12 70.3031 41.32C70.7298 40.5467 71.2631 39.8 71.9031 39.08C72.5698 38.3867 73.2365 37.7733 73.9031 37.24C75.0765 36.3067 76.4631 35.4267 78.0631 34.6C79.6898 33.7733 81.5165 33.1467 83.5431 32.72C83.5698 32.4267 83.5831 32.12 83.5831 31.8C83.5831 31.5067 83.5831 31.2133 83.5831 30.92C83.5831 28.76 83.4365 26.8 83.1431 25.04C82.8498 23.2533 82.5165 21.72 82.1431 20.44C81.0765 23.08 80.1298 25.28 79.3031 27.04C78.4765 28.7733 78.0231 30.2267 77.9431 31.4C77.9165 31.5867 77.7965 31.7867 77.5831 32C77.3965 32.24 77.1831 32.36 76.9431 32.36C76.7831 32.36 76.6231 32.2667 76.4631 32.08C76.3298 31.92 76.2365 31.6267 76.1831 31.2C76.1831 31.0933 76.1698 30.9467 76.1431 30.76C76.1431 30.5733 76.1431 30.24 76.1431 29.76C76.1431 29.28 76.1431 28.56 76.1431 27.6C76.1431 26.7467 76.1165 25.88 76.0631 25C76.0365 24.0933 75.9431 23.2533 75.7831 22.48C75.6231 21.7067 75.3831 21.08 75.0631 20.6C74.7698 20.12 74.3565 19.88 73.8231 19.88C73.3965 19.88 72.9965 20.04 72.6231 20.36C72.2765 20.68 71.9831 21 71.7431 21.32C71.5031 21.6133 71.3165 21.76 71.1831 21.76C71.0765 21.76 71.0231 21.72 71.0231 21.64C71.0231 21.5867 71.0631 21.5067 71.1431 21.4C71.1965 21.2667 71.2498 21.16 71.3031 21.08C71.5431 20.7333 71.8498 20.3867 72.2231 20.04C72.6231 19.6933 73.0365 19.4 73.4631 19.16C73.9165 18.8933 74.3165 18.76 74.6631 18.76C75.3831 18.76 75.9431 19.1333 76.3431 19.88C76.7431 20.6 77.0231 21.52 77.1831 22.64C77.3698 23.76 77.4631 24.9067 77.4631 26.08C77.4631 26.5867 77.4365 27.2 77.3831 27.92C77.3298 28.64 77.2631 29.2533 77.1831 29.76C77.7165 28.7733 78.3965 27.4 79.2231 25.64C80.0498 23.88 80.9565 21.8933 81.9431 19.68L81.5831 18.64V18.52C81.5831 18.2533 81.6631 18.0533 81.8231 17.92C82.0098 17.7867 82.1965 17.72 82.3831 17.72C82.5431 17.72 82.7031 17.76 82.8631 17.84C83.0231 17.92 83.1298 18.04 83.1831 18.2C83.5031 18.92 83.7698 19.9067 83.9831 21.16C84.2231 22.4133 84.3965 23.7733 84.5031 25.24C84.6365 26.68 84.7031 28.1067 84.7031 29.52C84.7031 30.5867 84.6631 31.5867 84.5831 32.52C85.2498 32.3867 85.9565 32.28 86.7031 32.2C87.4765 32.12 88.1431 32.08 88.7031 32.08C89.0498 32.08 89.2231 32.1333 89.2231 32.24C89.2231 32.4533 88.9431 32.5867 88.3831 32.64C87.7431 32.6933 87.0898 32.76 86.4231 32.84C85.7831 32.9467 85.1298 33.08 84.4631 33.24C83.9031 36.3067 83.0231 38.76 81.8231 40.6C80.6498 42.4667 79.4365 43.8667 78.1831 44.8C77.2765 45.4667 76.3831 45.9467 75.5031 46.24C74.6498 46.56 73.8498 46.72 73.1031 46.72ZM72.7831 45.88C73.2365 45.88 73.7565 45.7867 74.3431 45.6C74.9565 45.4133 75.5965 45.12 76.2631 44.72C78.3965 43.4667 80.0498 41.88 81.2231 39.96C82.3965 38.0667 83.1431 35.9067 83.4631 33.48C81.8898 33.9067 80.3031 34.52 78.7031 35.32C77.1298 36.1467 75.6898 37.1067 74.3831 38.2C73.7965 38.7067 73.2098 39.28 72.6231 39.92C72.0631 40.56 71.5965 41.2133 71.2231 41.88C70.8498 42.5733 70.6631 43.24 70.6631 43.88C70.6631 44.4933 70.8498 44.9733 71.2231 45.32C71.5965 45.6933 72.1165 45.88 72.7831 45.88Z" fill="white"/>
</svg>
